<svg xmlns="http://www.w3.org/2000/svg" viewBox="0 0 24 24"><style>path{fill:#161616}@media (prefers-color-scheme:dark){path{fill:#f7f7f8}}</style><path fill-rule="evenodd" clip-rule="evenodd" d="M12 0C16.1625 1.452e-08 20.07 1.0892 23.455 2.99753C23.4816 3.01169 23.5075 3.0267 23.5333 3.04253C23.8133 3.21919 24 3.53166 24 3.88832V20.1125C24 20.4675 23.815 20.7784 23.5367 20.9559C23.5067 20.9733 23.4767 20.99 23.4467 21.0075C23.4425 21.01 23.4375 21.0116 23.4333 21.0141C20.0533 22.9158 16.1717 24 12 24C7.82835 24 3.91252 22.9067 0.522528 20.99C0.508362 20.9825 0.494148 20.9742 0.479148 20.9658C0.191658 20.7892 0 20.4725 0 20.1108V3.88415C6.33633e-06 3.54333 0.170842 3.24254 0.430824 3.0617C0.483321 3.03171 0.535846 3.0017 0.589176 2.9717C3.96334 1.0792 7.8375 0 12 0ZM12 3.99997C7.58167 3.99997 3.99997 7.58167 3.99997 12C3.99997 16.4183 7.58167 20 12 20C16.4183 20 20 16.4183 20 12C20 7.58167 16.4183 3.99997 12 3.99997Z"/></svg>
